<svg width="23" height="24" viewBox="0 0 23 24" fill="none" xmlns="http://www.w3.org/2000/svg">
    <g clip-path="url(#clip0_4_77)">
        <path d="M1.672 12C1.672 14.0273 2.24634 16.009 3.3224 17.6946C4.39845 19.3802 5.92789 20.694 7.7173 21.4698C9.50672 22.2456 11.4757 22.4485 13.3754 22.053C15.275 21.6575 17.0199 20.6813 18.3895 19.2478C19.7591 17.8144 20.6917 15.988 21.0696 13.9997C21.4475 12.0114 21.2535 9.95043 20.5123 8.07749C19.7711 6.20455 18.5159 4.60372 16.9055 3.47743C15.2951 2.35115 13.4017 1.75 11.4649 1.75C8.86842 1.75264 6.37903 2.8334 4.54306 4.75508C2.70709 6.67675 1.67453 9.28234 1.672 12ZM13.7387 6.75999C13.9167 6.94736 14.0166 7.20081 14.0166 7.46499C14.0166 7.72918 13.9167 7.98263 13.7387 8.16999L10.0891 12.04L13.7292 15.81C13.9116 15.9956 14.0161 16.2496 14.0197 16.5159C14.0233 16.7822 13.9257 17.039 13.7483 17.23C13.5709 17.421 13.3283 17.5303 13.0739 17.5341C12.8195 17.5378 12.5741 17.4356 12.3916 17.25L8.78975 13.56C8.59296 13.3618 8.43691 13.1236 8.33116 12.86C8.13176 12.3367 8.13176 11.7533 8.33116 11.23C8.43434 10.967 8.5872 10.73 8.78019 10.53L12.3821 6.75999C12.4709 6.66627 12.5765 6.59187 12.693 6.5411C12.8094 6.49033 12.9343 6.4642 13.0604 6.4642C13.1865 6.4642 13.3114 6.49033 13.4278 6.5411C13.5443 6.59187 13.6499 6.66627 13.7387 6.75999Z" fill="white"/>
    </g>
    <defs>
        <clipPath id="clip0_4_77">
            <rect width="24" height="22.9297" fill="white" transform="translate(0 24) rotate(-90)"/>
        </clipPath>
    </defs>
</svg>
