<svg width="23" height="24" viewBox="0 0 23 24" fill="none" xmlns="http://www.w3.org/2000/svg">
<g clip-path="url(#clip0_4_83)">
<path d="M21.3281 12C21.3281 14.0273 20.7538 16.009 19.6777 17.6946C18.6017 19.3802 17.0722 20.694 15.2828 21.4698C13.4934 22.2456 11.5244 22.4485 9.62475 22.053C7.72511 21.6575 5.98019 20.6813 4.61063 19.2478C3.24107 17.8143 2.30839 15.988 1.93053 13.9997C1.55267 12.0114 1.7466 9.95043 2.4878 8.07749C3.229 6.20455 4.48418 4.60371 6.09461 3.47743C7.70504 2.35115 9.5984 1.74999 11.5352 1.74999C14.1317 1.75264 16.6211 2.8334 18.4571 4.75508C20.293 6.67675 21.3256 9.28234 21.3281 12ZM9.26139 6.75999C9.08344 6.94736 8.98356 7.20081 8.98356 7.46499C8.98356 7.72918 9.08344 7.98263 9.26139 8.16999L12.911 12.04L9.27094 15.81C9.0885 15.9956 8.98399 16.2495 8.98041 16.5159C8.97683 16.7822 9.07446 17.039 9.25183 17.23C9.4292 17.4209 9.67178 17.5303 9.92621 17.5341C10.1806 17.5378 10.4261 17.4356 10.6085 17.25L14.2104 13.56C14.4072 13.3618 14.5632 13.1236 14.669 12.86C14.8684 12.3367 14.8684 11.7533 14.669 11.23C14.5658 10.967 14.4129 10.73 14.2199 10.53L10.6181 6.75999C10.5292 6.66627 10.4236 6.59187 10.3071 6.5411C10.1907 6.49033 10.0658 6.46419 9.93972 6.46419C9.8136 6.46419 9.68872 6.49033 9.5723 6.5411C9.45587 6.59187 9.3502 6.66627 9.26139 6.75999Z" fill="white"/>
</g>
<defs>
<clipPath id="clip0_4_83">
<rect width="24" height="22.9297" fill="white" transform="translate(23) rotate(90)"/>
</clipPath>
</defs>
</svg>
