<svg width="22" height="21" viewBox="0 0 22 21" fill="none" xmlns="http://www.w3.org/2000/svg">
<path d="M8.707 2.793C8.414 2.5 7.943 2.5 7 2.5H6.75V1C6.75 0.801088 6.67098 0.610322 6.53033 0.46967C6.38968 0.329018 6.19891 0.25 6 0.25C5.80109 0.25 5.61032 0.329018 5.46967 0.46967C5.32902 0.610322 5.25 0.801088 5.25 1V2.5H5C4.057 2.5 3.586 2.5 3.293 2.793C3 3.086 3 3.557 3 4.5V4.704C3.20333 4.652 3.40533 4.613 3.606 4.587C4.25 4.5 5.045 4.5 5.91 4.5H6.089C6.954 4.5 7.748 4.5 8.393 4.587C8.59433 4.61233 8.79633 4.65133 8.999 4.704V4.5C8.999 3.557 9 3.086 8.707 2.793Z" fill="white"/>
<path fill-rule="evenodd" clip-rule="evenodd" d="M1 19.25C0.801088 19.25 0.610322 19.3291 0.46967 19.4697C0.329018 19.6104 0.25 19.8011 0.25 20C0.25 20.199 0.329018 20.3897 0.46967 20.5304C0.610322 20.671 0.801088 20.75 1 20.75H21C21.1989 20.75 21.3897 20.671 21.5303 20.5304C21.671 20.3897 21.75 20.199 21.75 20C21.75 19.8011 21.671 19.6104 21.5303 19.4697C21.3897 19.3291 21.1989 19.25 21 19.25H20V5.77205C20 4.43205 20 3.76105 19.644 3.24705C19.288 2.73305 18.66 2.49705 17.404 2.02705C14.949 1.10605 13.722 0.64605 12.861 1.24205C12 1.84005 12 3.15005 12 5.77205V8.50005H12.09C12.955 8.50005 13.749 8.50005 14.394 8.58705C15.105 8.68205 15.857 8.90705 16.474 9.52505C17.093 10.1431 17.318 10.8951 17.414 11.6051C17.5 12.2511 17.5 13.0451 17.5 13.9111V19.25H16V14.0001C16 12.1141 16 11.1721 15.414 10.5861C14.828 10.0001 13.886 10.0001 12 10.0001H10C8.114 10.0001 7.172 10.0001 6.586 10.5861C6 11.1721 6 12.1141 6 14.0001V19.25H4.5V13.9101C4.5 13.0451 4.5 12.2511 4.587 11.6061C4.682 10.8951 4.907 10.1431 5.525 9.52605C6.143 8.90705 6.895 8.68205 7.605 8.58605C8.251 8.50005 9.045 8.50005 9.911 8.50005H9.983C9.943 7.56405 9.818 6.99005 9.414 6.58605C8.828 6.00005 7.886 6.00005 6 6.00005C4.114 6.00005 3.172 6.00005 2.586 6.58605C2 7.17205 2 8.11405 2 10.0001V19.25H1ZM8.25 13.0001C8.25 12.8011 8.32902 12.6104 8.46967 12.4697C8.61032 12.3291 8.80109 12.2501 9 12.2501H13C13.1989 12.2501 13.3897 12.3291 13.5303 12.4697C13.671 12.6104 13.75 12.8011 13.75 13.0001C13.75 13.199 13.671 13.3897 13.5303 13.5304C13.3897 13.671 13.1989 13.7501 13 13.7501H9C8.80109 13.7501 8.61032 13.671 8.46967 13.5304C8.32902 13.3897 8.25 13.199 8.25 13.0001ZM8.25 16.0001C8.25 15.8011 8.32902 15.6104 8.46967 15.4697C8.61032 15.3291 8.80109 15.2501 9 15.2501H13C13.1989 15.2501 13.3897 15.3291 13.5303 15.4697C13.671 15.6104 13.75 15.8011 13.75 16.0001C13.75 16.199 13.671 16.3897 13.5303 16.5304C13.3897 16.671 13.1989 16.7501 13 16.7501H9C8.80109 16.7501 8.61032 16.671 8.46967 16.5304C8.32902 16.3897 8.25 16.199 8.25 16.0001Z" fill="white"/>
</svg>
