<svg width="36" height="36" viewBox="0 0 36 36" fill="none" xmlns="http://www.w3.org/2000/svg">
<circle cx="18" cy="18" r="18" fill="#F97A0B"/>
<path d="M18.84 16.6C18.28 16.46 17.72 16.18 17.3 15.76C16.88 15.62 16.74 15.2 16.74 14.92C16.74 14.64 16.88 14.22 17.16 14.08C17.58 13.8 18 13.52 18.42 13.66C19.26 13.66 19.96 14.08 20.38 14.64L21.64 12.96C21.22 12.54 20.8 12.26 20.38 11.98C19.96 11.7 19.4 11.56 18.84 11.56V9.59999H17.16V11.56C16.46 11.7 15.76 12.12 15.2 12.68C14.64 13.38 14.22 14.22 14.36 15.06C14.36 15.9 14.64 16.74 15.2 17.3C15.9 18 16.88 18.42 17.72 18.84C18.14 18.98 18.7 19.26 19.12 19.54C19.4 19.82 19.54 20.24 19.54 20.66C19.54 21.08 19.4 21.5 19.12 21.92C18.7 22.34 18.14 22.48 17.72 22.48C17.16 22.48 16.46 22.34 16.04 21.92C15.62 21.64 15.2 21.22 14.92 20.8L13.52 22.34C13.94 22.9 14.36 23.32 14.92 23.74C15.62 24.16 16.46 24.58 17.3 24.58V26.4H18.84V24.3C19.68 24.16 20.38 23.74 20.94 23.18C21.64 22.48 22.06 21.36 22.06 20.38C22.06 19.54 21.78 18.56 21.08 18C20.38 17.3 19.68 16.88 18.84 16.6ZM18 6.79999C11.84 6.79999 6.8 11.84 6.8 18C6.8 24.16 11.84 29.2 18 29.2C24.16 29.2 29.2 24.16 29.2 18C29.2 11.84 24.16 6.79999 18 6.79999ZM18 27.66C12.68 27.66 8.34 23.32 8.34 18C8.34 12.68 12.68 8.33999 18 8.33999C23.32 8.33999 27.66 12.68 27.66 18C27.66 23.32 23.32 27.66 18 27.66Z" fill="white"/>
</svg>
