<svg width="36" height="36" viewBox="0 0 36 36" fill="none" xmlns="http://www.w3.org/2000/svg">
<circle cx="18" cy="18" r="18" fill="#F97A0B"/>
<path d="M17.022 12.787V25.787M17 25.5C16.778 25.5 16.323 25.258 15.415 24.774C14.492 24.282 13.217 23.792 11.583 23.484C9.749 23.14 8.833 22.968 8.416 22.459C8 21.949 8 21.135 8 19.504V13.097C8 11.314 8 10.422 8.649 9.873C9.297 9.324 10.059 9.467 11.582 9.753C14.59 10.319 16.382 11.502 17 12.181C17.618 11.502 19.41 10.319 22.418 9.754C23.941 9.467 24.703 9.324 25.351 9.873C26 10.422 26 11.313 26 13.097V16M26.864 18.94L27.559 19.632C27.6986 19.771 27.8093 19.9362 27.8849 20.1181C27.9604 20.3 27.9993 20.495 27.9993 20.692C27.9993 20.889 27.9604 21.084 27.8849 21.2659C27.8093 21.4478 27.6986 21.613 27.559 21.752L23.917 25.448C23.6306 25.7341 23.2641 25.9266 22.866 26L20.609 26.488C20.5271 26.5063 20.442 26.5037 20.3614 26.4805C20.2808 26.4573 20.2073 26.4142 20.1478 26.3551C20.0882 26.296 20.0445 26.2229 20.0206 26.1425C19.9967 26.0621 19.9934 25.977 20.011 25.895L20.491 23.66C20.566 23.263 20.759 22.898 21.046 22.613L24.734 18.939C25.017 18.6575 25.3999 18.4995 25.799 18.4995C26.1981 18.4995 26.581 18.6585 26.864 18.94Z" stroke="white" stroke-width="1.5" stroke-linecap="round" stroke-linejoin="round"/>
</svg>
