<?xml version="1.0" encoding="iso-8859-1"?>
<!-- Generator: Adobe Illustrator 19.0.0, SVG Export Plug-In . SVG Version: 6.00 Build 0)  -->
<svg xmlns="http://www.w3.org/2000/svg" xmlns:xlink="http://www.w3.org/1999/xlink" version="1.1" id="Layer_1" x="0px" y="0px" viewBox="0 0 512 512" style="enable-background:new 0 0 512 512;" xml:space="preserve">
<path style="fill:#FFA233;" d="M64.144,113.912c6.367,6.369,15.165,10.309,24.883,10.309c19.438,0,35.194-15.757,35.194-35.193  s-15.757-35.192-35.194-35.192c-19.436,0-35.192,15.756-35.192,35.192C53.834,98.745,57.775,107.543,64.144,113.912"/>
<g>
	<path style="fill:#85C8EB;" d="M416.644,169.971h-37.386c1.578-2.672,2.499-5.776,2.499-9.105c0-9.912-8.034-17.948-17.948-17.948   h-84.184c-9.913,0-17.946,8.036-17.946,17.948c0,9.911,8.032,17.946,17.946,17.946h37.389c-1.578,2.672-2.499,5.775-2.499,9.107   c0,9.911,8.029,17.946,17.945,17.946h10.567h24.903h48.714c9.914,0,17.949-8.035,17.949-17.946   C434.593,178.007,426.559,169.971,416.644,169.971z"/>
	<path style="fill:#85C8EB;" d="M454.361,63.538h-26.644h-23.811h-26.644c-9.91,0-17.945,8.032-17.945,17.945   c0,9.911,8.035,17.944,17.945,17.944h26.644h23.811h26.644c9.911,0,17.947-8.032,17.947-17.944   C472.309,71.57,464.273,63.538,454.361,63.538z"/>
	<circle style="fill:#85C8EB;" cx="315.726" cy="81.478" r="17.945"/>
</g>
<path style="fill:#B0E046;" d="M496.589,469.342c-1.927,0-3.773,0.333-5.493,0.94c-0.321-14.292-11.997-25.78-26.363-25.78  c-12.958,0-23.728,9.347-25.95,21.668c-3.813-3.754-9.042-6.071-14.814-6.071c-1.552,0-3.067,0.175-4.524,0.493  c-4.009-9.455-13.365-16.09-24.281-16.09c-12.957,0-23.728,9.347-25.95,21.668c-3.813-3.754-9.041-6.071-14.814-6.071  c-11.177,0-20.32,8.685-21.065,19.674c-1.018-0.272-2.081-0.43-3.183-0.43c-6.785,0-12.285,5.5-12.285,12.287  c0,6.785,5.499,12.286,12.285,12.286h69.571h34.623h9.443h16.767h43.359V471.07C501.708,469.972,499.224,469.342,496.589,469.342z"/>
<rect x="8.084" y="469.606" style="fill:#85C8EB;" width="69.406" height="34.313"/>
<g>
	<path style="fill:#C5D5DD;" d="M395.164,444.502c10.916,0,20.273,6.634,24.281,16.09c1.458-0.318,2.972-0.493,4.524-0.493   c5.771,0,11.001,2.315,14.814,6.071c1.845-10.224,9.582-18.381,19.565-20.867V412.65h-86.771v46.463   C375.903,450.456,384.831,444.502,395.164,444.502z"/>
	<rect x="77.488" y="412.65" style="fill:#C5D5DD;" width="74.386" height="91.265"/>
</g>
<g>
	<path style="fill:#B0BBBF;" d="M317.867,491.63c0-6.788,5.499-12.287,12.285-12.287c1.102,0,2.165,0.158,3.183,0.43   c0.745-10.989,9.889-19.674,21.065-19.674c5.772,0,11.001,2.315,14.814,6.071c0.451-2.494,1.267-4.858,2.364-7.056V353.186h-68.985   v150.73h27.559C323.366,503.916,317.867,498.414,317.867,491.63z"/>
	<rect x="151.875" y="282.236" style="fill:#B0BBBF;" width="64.835" height="221.68"/>
</g>
<polygon style="fill:#85C8EB;" points="302.593,503.916 216.945,503.916 216.945,196.166 302.593,256 "/>
<g>
	<path style="fill:#231F20;" d="M58.427,119.627c8.173,8.176,19.04,12.678,30.6,12.678c23.865,0,43.279-19.415,43.279-43.277   s-19.415-43.276-43.279-43.276S45.751,65.165,45.751,89.028C45.75,100.586,50.253,111.454,58.427,119.627z M89.028,61.919   c14.948,0,27.11,12.161,27.11,27.108c0,14.948-12.162,27.109-27.11,27.109c-7.24,0-14.046-2.82-19.167-7.942   c-5.121-5.12-7.941-11.927-7.941-19.167C61.919,74.08,74.08,61.919,89.028,61.919z"/>
	<path style="fill:#231F20;" d="M139.013,89.028c0,4.466,3.618,8.084,8.084,8.084h22.875c4.466,0,8.084-3.618,8.084-8.084   c0-4.466-3.618-8.084-8.084-8.084h-22.875C142.631,80.943,139.013,84.562,139.013,89.028z"/>
	<path style="fill:#231F20;" d="M8.084,97.112H30.96c4.466,0,8.084-3.618,8.084-8.084c0-4.466-3.618-8.084-8.084-8.084H8.084   C3.618,80.943,0,84.562,0,89.028C0,93.493,3.618,97.112,8.084,97.112z"/>
	<path style="fill:#231F20;" d="M130.089,56.052c2.068,0,4.138-0.789,5.717-2.368l16.176-16.177   c3.157-3.157,3.157-8.276-0.001-11.432c-3.156-3.156-8.275-3.157-11.432,0.001l-16.176,16.177   c-3.157,3.157-3.157,8.276,0.001,11.432C125.952,55.263,128.022,56.052,130.089,56.052z"/>
	<path style="fill:#231F20;" d="M42.25,124.372l-16.176,16.177c-3.157,3.157-3.157,8.276,0.001,11.432   c1.578,1.578,3.648,2.367,5.716,2.367s4.138-0.789,5.717-2.368l16.176-16.177c3.157-3.157,3.157-8.276-0.001-11.432   C50.527,121.215,45.408,121.214,42.25,124.372z"/>
	<path style="fill:#231F20;" d="M89.028,39.042c4.465,0,8.084-3.618,8.084-8.084l0.001-22.874C97.113,3.62,93.494,0,89.029,0   c-4.465,0-8.084,3.618-8.084,8.084l-0.001,22.874C80.943,35.422,84.562,39.042,89.028,39.042z"/>
	<path style="fill:#231F20;" d="M80.943,147.096v22.876c0,4.466,3.618,8.084,8.084,8.084c4.466,0,8.084-3.618,8.084-8.084v-22.876   c0-4.466-3.618-8.084-8.084-8.084C84.562,139.012,80.943,142.63,80.943,147.096z"/>
	<path style="fill:#231F20;" d="M42.25,53.685c1.579,1.578,3.649,2.367,5.717,2.367c2.068,0,4.138-0.789,5.717-2.367   c3.157-3.158,3.157-8.276,0-11.433L37.509,26.074c-3.158-3.156-8.276-3.156-11.433,0c-3.157,3.158-3.157,8.276,0,11.433   L42.25,53.685z"/>
	<path style="fill:#231F20;" d="M124.373,124.373c-3.157,3.158-3.157,8.276,0,11.433l16.176,16.176   c1.579,1.578,3.649,2.367,5.717,2.367c2.068,0,4.138-0.789,5.717-2.367c3.157-3.158,3.157-8.276,0-11.433l-16.176-16.176   C132.649,121.217,127.53,121.217,124.373,124.373z"/>
	<path style="fill:#231F20;" d="M279.626,186.897h26.826c-0.014,0.34-0.021,0.682-0.021,1.023c0,14.353,11.677,26.03,26.029,26.03   h10.567c4.466,0,8.084-3.618,8.084-8.084s-3.618-8.084-8.084-8.084H332.46c-5.438,0-9.861-4.424-9.861-9.862   c0-1.77,0.464-3.45,1.375-4.997c1.476-2.5,1.499-5.598,0.06-8.119c-1.439-2.52-4.119-4.076-7.021-4.076h-37.389   c-5.438,0-9.862-4.424-9.862-9.862c0-5.439,4.424-9.864,9.862-9.864h84.184c5.439,0,9.864,4.425,9.864,9.864   c0,1.768-0.463,3.448-1.375,4.996c-1.476,2.499-1.499,5.596-0.06,8.118c1.439,2.52,4.119,4.076,7.021,4.076h37.386   c5.44,0,9.865,4.425,9.865,9.864c0,5.438-4.425,9.862-9.865,9.862H367.93c-4.466,0-8.084,3.618-8.084,8.084   s3.618,8.084,8.084,8.084h48.714c14.354,0,26.033-11.677,26.033-26.03c0-14.354-11.679-26.032-26.033-26.032h-26.822   c0.014-0.34,0.021-0.68,0.021-1.021c0-14.354-11.678-26.032-26.032-26.032h-84.184c-14.353,0-26.03,11.678-26.03,26.032   C253.596,175.22,265.273,186.897,279.626,186.897z"/>
	<path style="fill:#231F20;" d="M377.262,107.511h77.099c14.353,0,26.031-11.676,26.031-26.028s-11.678-26.029-26.031-26.029   h-77.099c-14.352,0-26.029,11.677-26.029,26.029S362.91,107.511,377.262,107.511z M377.262,71.622h77.099   c5.439,0,9.863,4.424,9.863,9.861c0,5.437-4.424,9.86-9.863,9.86h-77.099c-5.438,0-9.861-4.424-9.861-9.86   C367.401,76.045,371.824,71.622,377.262,71.622z"/>
	<path style="fill:#231F20;" d="M315.729,107.511c14.352,0,26.029-11.676,26.029-26.028s-11.677-26.029-26.029-26.029   S289.7,67.131,289.7,81.483S301.377,107.511,315.729,107.511z M315.729,71.622c5.438,0,9.861,4.424,9.861,9.861   c0,5.437-4.424,9.86-9.861,9.86c-5.437,0-9.861-4.424-9.861-9.86C305.869,76.045,310.291,71.622,315.729,71.622z"/>
	<path style="fill:#231F20;" d="M274.225,268.763h-28.915c-4.466,0-8.084,3.618-8.084,8.084c0,4.466,3.618,8.084,8.084,8.084h28.915   c4.466,0,8.084-3.618,8.084-8.084C282.309,272.382,278.691,268.763,274.225,268.763z"/>
	<path style="fill:#231F20;" d="M274.225,300.958h-28.915c-4.466,0-8.084,3.618-8.084,8.084s3.618,8.084,8.084,8.084h28.915   c4.466,0,8.084-3.618,8.084-8.084S278.691,300.958,274.225,300.958z"/>
	<path style="fill:#231F20;" d="M274.225,333.152h-28.915c-4.466,0-8.084,3.618-8.084,8.084s3.618,8.084,8.084,8.084h28.915   c4.466,0,8.084-3.618,8.084-8.084S278.691,333.152,274.225,333.152z"/>
	<path style="fill:#231F20;" d="M274.225,365.346h-28.915c-4.466,0-8.084,3.618-8.084,8.084s3.618,8.084,8.084,8.084h28.915   c4.466,0,8.084-3.618,8.084-8.084S278.691,365.346,274.225,365.346z"/>
	<path style="fill:#231F20;" d="M274.225,397.542h-28.915c-4.466,0-8.084,3.618-8.084,8.084s3.618,8.084,8.084,8.084h28.915   c4.466,0,8.084-3.618,8.084-8.084S278.691,397.542,274.225,397.542z"/>
	<path style="fill:#231F20;" d="M274.225,429.736h-28.915c-4.466,0-8.084,3.618-8.084,8.084s3.618,8.084,8.084,8.084h28.915   c4.466,0,8.084-3.618,8.084-8.084S278.691,429.736,274.225,429.736z"/>
	<path style="fill:#231F20;" d="M274.225,461.931h-28.915c-4.466,0-8.084,3.618-8.084,8.084c0,4.466,3.618,8.084,8.084,8.084h28.915   c4.466,0,8.084-3.618,8.084-8.084C282.309,465.549,278.691,461.931,274.225,461.931z"/>
	<path style="fill:#231F20;" d="M184.29,478.099c4.466,0,8.084-3.618,8.084-8.084V317.313c0-4.466-3.618-8.084-8.084-8.084   s-8.084,3.618-8.084,8.084v152.702C176.206,474.48,179.824,478.099,184.29,478.099z"/>
	<path style="fill:#231F20;" d="M507.519,463.833c-3.066-1.526-6.325-2.38-9.708-2.546c-4.052-13.786-16.584-24.086-31.379-24.823   V412.65c0-4.466-3.618-8.084-8.084-8.084h-78.686v-51.381c0-4.466-3.618-8.084-8.084-8.084h-60.901V256   c0-2.641-1.289-5.115-3.455-6.627l-82.194-57.421v-75.819c0-4.466-3.618-8.084-8.084-8.084c-4.466,0-8.084,3.618-8.084,8.084   v80.034v77.987h-56.987c-4.466,0-8.084,3.618-8.084,8.084v122.328H77.488c-4.466,0-8.084,3.618-8.084,8.084v48.868H8.084   c-4.466,0-8.084,3.618-8.084,8.084v34.313C0,508.382,3.618,512,8.084,512h69.403h74.386h64.834c0.04,0,0.079-0.005,0.119-0.005   s0.079,0.005,0.119,0.005h85.648h27.559h173.764c4.466,0,8.084-3.618,8.084-8.084V471.07   C512,468.004,510.265,465.2,507.519,463.833z M450.265,420.735v18.877c-6.56,3.034-12.05,8.065-15.604,14.417   c-1.676-0.659-3.415-1.161-5.198-1.499c-0.013-0.002-0.026-0.004-0.039-0.007c-0.432-0.082-0.868-0.154-1.304-0.217   c-0.167-0.024-0.336-0.039-0.504-0.059c-0.285-0.036-0.568-0.073-0.854-0.1c-0.26-0.025-0.523-0.039-0.785-0.056   c-0.197-0.014-0.392-0.032-0.59-0.042c-0.459-0.023-0.922-0.033-1.384-0.033c-6.288-9.634-17.053-15.597-28.837-15.597   c-0.752,0-1.498,0.029-2.241,0.077c-0.215,0.014-0.426,0.039-0.639,0.056c-0.536,0.044-1.068,0.095-1.597,0.164   c-0.225,0.029-0.449,0.066-0.674,0.099c-0.527,0.079-1.051,0.167-1.57,0.269c-0.195,0.039-0.389,0.08-0.584,0.121   c-0.57,0.123-1.135,0.26-1.696,0.41c-0.134,0.037-0.267,0.07-0.4,0.108c-0.674,0.19-1.34,0.398-1.998,0.628   c-0.016,0.005-0.032,0.011-0.049,0.016c-1.389,0.487-2.745,1.053-4.054,1.711v-19.342H450.265z M363.494,361.269v51.381v40.803   c-0.072-0.024-0.148-0.04-0.221-0.063c-0.617-0.196-1.24-0.375-1.869-0.53c-0.051-0.012-0.099-0.027-0.15-0.039   c-0.656-0.157-1.322-0.286-1.991-0.398c-0.134-0.023-0.266-0.045-0.4-0.067c-0.656-0.1-1.317-0.179-1.983-0.235   c-0.124-0.011-0.249-0.017-0.374-0.026c-0.698-0.05-1.4-0.083-2.106-0.083c-12.608,0-23.514,8.114-27.542,19.51   c-0.553,0.089-1.095,0.209-1.632,0.343c-0.165,0.041-0.327,0.089-0.49,0.135c-0.376,0.105-0.748,0.217-1.115,0.341   c-0.176,0.06-0.35,0.121-0.525,0.185c-0.37,0.137-0.733,0.286-1.092,0.443c-0.144,0.064-0.29,0.122-0.432,0.188   c-0.493,0.23-0.977,0.474-1.447,0.742c-0.04,0.023-0.078,0.049-0.118,0.072c-0.428,0.247-0.844,0.51-1.251,0.786   c-0.14,0.095-0.275,0.195-0.412,0.292c-0.308,0.22-0.61,0.447-0.904,0.683c-0.141,0.113-0.28,0.226-0.418,0.343   c-0.303,0.255-0.595,0.522-0.882,0.794c-0.106,0.1-0.215,0.196-0.317,0.297c-0.38,0.378-0.749,0.769-1.099,1.175   c-0.057,0.067-0.11,0.138-0.167,0.206c-0.289,0.344-0.567,0.696-0.832,1.058c-0.103,0.141-0.203,0.287-0.303,0.431   c-0.212,0.306-0.417,0.618-0.613,0.937c-0.096,0.156-0.192,0.312-0.284,0.47c-0.203,0.35-0.393,0.707-0.576,1.07   c-0.063,0.124-0.13,0.246-0.19,0.371c-0.233,0.487-0.447,0.985-0.641,1.494c-0.042,0.11-0.075,0.222-0.115,0.333   c-0.112,0.31-0.227,0.619-0.324,0.936V361.269H363.494z M16.168,477.687h53.235v18.144H16.168V477.687z M85.572,469.603v-48.869   h58.217v75.097H85.572V469.603z M208.623,495.832h-48.666V412.65V290.321h48.666V495.832z M225.029,211.676l69.48,48.538v92.972   v142.646h-69.48L225.029,211.676L225.029,211.676z M495.832,495.832h-165.68c-2.316,0-4.201-1.885-4.201-4.202   c0-2.317,1.884-4.203,4.201-4.203c0.343,0,0.702,0.052,1.099,0.157c2.337,0.628,4.826,0.17,6.79-1.236   c1.964-1.406,3.197-3.616,3.36-6.027c0.462-6.806,6.172-12.137,13-12.137c3.442,0,6.688,1.33,9.141,3.747   c1.602,1.578,3.759,2.395,5.944,2.321c0.319-0.011,0.637-0.049,0.955-0.098c0.41-0.064,0.816-0.15,1.218-0.278   c0.887-0.281,1.69-0.721,2.41-1.264c1.599-1.205,2.734-2.97,3.101-5.005c0.002-0.011,0.004-0.02,0.006-0.03   c0.083-0.456,0.19-0.902,0.305-1.345c0.075-0.285,0.162-0.567,0.252-0.849c0.038-0.122,0.077-0.243,0.117-0.362   c0.265-0.773,0.582-1.537,0.956-2.286c0.001-0.001,0.002-0.003,0.003-0.005c0.781-1.564,1.758-2.979,2.894-4.222   c0.001-0.001,0.001-0.001,0.001-0.001c0.28-0.307,0.569-0.602,0.868-0.886c0.029-0.028,0.059-0.054,0.088-0.081   c0.424-0.4,0.87-0.772,1.328-1.127c0.19-0.147,0.375-0.297,0.57-0.437c0.153-0.109,0.313-0.209,0.469-0.314   c0.254-0.169,0.511-0.337,0.774-0.494c0.143-0.086,0.289-0.167,0.434-0.249c0.301-0.168,0.606-0.328,0.916-0.479   c0.12-0.059,0.239-0.119,0.361-0.176c0.421-0.194,0.849-0.375,1.286-0.537c0.015-0.005,0.03-0.013,0.045-0.018   c0.468-0.172,0.945-0.322,1.43-0.456c0.098-0.027,0.199-0.049,0.299-0.074c0.373-0.097,0.751-0.182,1.133-0.255   c0.149-0.028,0.298-0.054,0.447-0.079c0.354-0.058,0.711-0.106,1.07-0.143c0.146-0.015,0.291-0.035,0.438-0.045   c0.497-0.041,0.997-0.067,1.503-0.067c7.354,0,13.964,4.381,16.838,11.161c1.518,3.579,5.366,5.571,9.165,4.743   c4.413-0.961,8.831,0.374,11.943,3.438c0.238,0.235,0.493,0.447,0.755,0.648c0.075,0.058,0.153,0.112,0.231,0.168   c0.207,0.148,0.419,0.285,0.638,0.411c0.071,0.042,0.14,0.086,0.213,0.125c0.28,0.151,0.567,0.286,0.86,0.402   c0.075,0.03,0.153,0.053,0.23,0.081c0.23,0.083,0.462,0.156,0.698,0.218c0.102,0.027,0.204,0.053,0.306,0.075   c0.263,0.058,0.528,0.103,0.797,0.135c0.053,0.006,0.105,0.018,0.157,0.023c0.262,0.026,0.525,0.039,0.789,0.039   c0.038,0,0.075-0.009,0.113-0.009c0.277-0.004,0.553-0.031,0.83-0.064c0.113-0.013,0.226-0.017,0.34-0.035   c0.39-0.064,0.778-0.15,1.161-0.272c0.357-0.113,0.703-0.25,1.035-0.409c2.327-1.109,4.01-3.279,4.475-5.862   c0.089-0.495,0.204-0.979,0.331-1.457c0.049-0.183,0.107-0.362,0.162-0.542c0.084-0.282,0.174-0.563,0.271-0.84   c0.081-0.227,0.166-0.454,0.257-0.677c0.082-0.207,0.17-0.411,0.26-0.613c0.115-0.26,0.231-0.518,0.358-0.772   c0.059-0.12,0.126-0.235,0.188-0.354c0.762-1.441,1.706-2.775,2.813-3.956c0.005-0.005,0.01-0.011,0.015-0.016   c2.361-2.514,5.43-4.363,8.911-5.231c0.018-0.004,0.035-0.013,0.053-0.018c1.409-0.346,2.873-0.542,4.378-0.542   c9.858,0,18.06,8.02,18.281,17.877c0.058,2.591,1.355,4.998,3.487,6.471c2.133,1.473,4.842,1.836,7.287,0.971   c0.661-0.234,1.346-0.383,2.044-0.445v18.37H495.832z"/>
</g>
<g style="opacity:0.1;">
	<rect x="16.106" y="470.911" style="fill:#231F20;" width="17.246" height="31.442"/>
</g>
<g style="opacity:0.1;">
	<rect x="85.725" y="412.65" style="fill:#231F20;" width="17.246" height="88.341"/>
</g>
<g style="opacity:0.1;">
	<rect x="159.83" y="288.93" style="fill:#231F20;" width="17.246" height="208.034"/>
</g>
<g style="opacity:0.1;">
	<rect x="224.946" y="210.966" style="fill:#231F20;" width="17.246" height="285.998"/>
</g>
<g style="opacity:0.1;">
	<rect x="310.466" y="351.221" style="fill:#231F20;" width="17.246" height="134.543"/>
</g>
<g style="opacity:0.1;">
	<rect x="379.635" y="411.81" style="fill:#231F20;" width="17.246" height="32.695"/>
</g>
<g>
</g>
<g>
</g>
<g>
</g>
<g>
</g>
<g>
</g>
<g>
</g>
<g>
</g>
<g>
</g>
<g>
</g>
<g>
</g>
<g>
</g>
<g>
</g>
<g>
</g>
<g>
</g>
<g>
</g>
</svg>
