<svg width="10" height="7" viewBox="0 0 10 7" fill="none" xmlns="http://www.w3.org/2000/svg">
<path fill-rule="evenodd" clip-rule="evenodd" d="M9.707 0.292941C9.89447 0.480469 9.99979 0.734777 9.99979 0.999941C9.99979 1.26511 9.89447 1.51941 9.707 1.70694L5 6.41394L0.293 1.70694C0.110842 1.51834 0.0100473 1.26574 0.0123258 1.00354C0.0146042 0.741342 0.119774 0.49053 0.305182 0.305122C0.49059 0.119713 0.741403 0.0145447 1.0036 0.0122663C1.2658 0.00998793 1.5184 0.110782 1.707 0.29294L5 3.58594L8.293 0.292941C8.48053 0.10547 8.73484 0.000154385 9 0.000154408C9.26516 0.000154431 9.51947 0.10547 9.707 0.292941Z" fill="white"/>
</svg>
