<svg width="32" height="32" viewBox="0 0 32 32" fill="none" xmlns="http://www.w3.org/2000/svg">
<circle cx="16" cy="16" r="16" fill="#F97A0B"/>
<path d="M24.3333 14.3333V13.6808C24.3333 12.0641 24.3333 11.2566 23.845 10.7541C23.3567 10.2525 22.5717 10.2525 21 10.2525H19.2675C18.5033 10.2525 18.4967 10.2508 17.8092 9.90664L15.0333 8.51747C13.8742 7.93747 13.2942 7.64747 12.6767 7.66747C12.0592 7.68747 11.5 8.01497 10.3775 8.66997L9.35501 9.26664C8.53084 9.74747 8.11917 9.98831 7.89334 10.3883C7.66667 10.7883 7.66667 11.275 7.66667 12.2491V19.0966C7.66667 20.3758 7.66667 21.0158 7.95167 21.3716C8.14167 21.6091 8.40751 21.7683 8.70167 21.8216C9.14334 21.9008 9.685 21.585 10.7667 20.9533C11.5017 20.5241 12.2083 20.0783 13.0875 20.1991C13.8242 20.3008 14.5083 20.7658 15.1667 21.095M12.6667 7.66664V20.1666M18.5 10.1666V13.9166" stroke="white" stroke-width="1.5" stroke-linecap="round" stroke-linejoin="round"/>
<path d="M20.5833 19.75H20.5908M21.2567 24.07C21.0738 24.2401 20.8331 24.3342 20.5833 24.3333C20.3317 24.3333 20.0908 24.2392 19.91 24.0692C18.255 22.5108 16.0383 20.7692 17.1192 18.2417C17.7042 16.875 19.1083 16 20.5833 16C22.0583 16 23.4633 16.875 24.0475 18.2417C25.1275 20.7667 22.9158 22.5175 21.2567 24.07Z" stroke="white" stroke-width="1.5" stroke-linecap="round" stroke-linejoin="round"/>
</svg>
