<svg width="28" height="28" viewBox="0 0 28 28" fill="none" xmlns="http://www.w3.org/2000/svg">
<path d="M3.11111 0C2.28599 0 1.49467 0.327777 0.911223 0.911223C0.327777 1.49467 0 2.28599 0 3.11111V24.8889C0 25.714 0.327777 26.5053 0.911223 27.0888C1.49467 27.6722 2.28599 28 3.11111 28H24.8889C25.714 28 26.5053 27.6722 27.0888 27.0888C27.6722 26.5053 28 25.714 28 24.8889V3.11111C28 2.28599 27.6722 1.49467 27.0888 0.911223C26.5053 0.327777 25.714 0 24.8889 0H3.11111ZM5.28889 5.44444H22.7111C23.9089 5.44444 24.8889 6.40889 24.8889 7.62222V20.3778C24.8889 20.9554 24.6594 21.5093 24.251 21.9177C23.8426 22.3261 23.2887 22.5556 22.7111 22.5556H5.28889C4.09111 22.5556 3.11111 21.5756 3.11111 20.3778V7.62222C3.11111 6.40889 4.07556 5.44444 5.28889 5.44444ZM4.66667 7.77778V10.8889L14 17.1111L23.3333 10.8889V7.77778L14 14L4.66667 7.77778Z" fill="white"/>
</svg>
