<svg width="32" height="32" viewBox="0 0 32 32" fill="none" xmlns="http://www.w3.org/2000/svg">
<rect width="32" height="32" rx="6" fill="#F97A0B"/>
<path d="M26 11L16 17.25L6 11V8.5L16 14.75L26 8.5M26 6H6C4.6125 6 3.5 7.1125 3.5 8.5V23.5C3.5 24.163 3.76339 24.7989 4.23223 25.2678C4.70107 25.7366 5.33696 26 6 26H26C26.663 26 27.2989 25.7366 27.7678 25.2678C28.2366 24.7989 28.5 24.163 28.5 23.5V8.5C28.5 7.83696 28.2366 7.20107 27.7678 6.73223C27.2989 6.26339 26.663 6 26 6Z" fill="white"/>
</svg>
