<svg width="32" height="32" viewBox="0 0 32 32" fill="none" xmlns="http://www.w3.org/2000/svg">
<circle cx="16" cy="16" r="16" fill="#F97A0B"/>
<path d="M20.625 13.6459L23.5625 10.6875C23.7292 10.5209 23.9272 10.4375 24.1567 10.4375C24.3861 10.4375 24.5839 10.5209 24.75 10.6875C24.9161 10.8542 24.9994 11.0523 25 11.2817C25.0006 11.5112 24.9172 11.7089 24.75 11.875L21.2083 15.4167C21.0417 15.5834 20.8472 15.6667 20.625 15.6667C20.4028 15.6667 20.2083 15.5834 20.0417 15.4167L18.2708 13.6459C18.1042 13.4792 18.0208 13.2814 18.0208 13.0525C18.0208 12.8237 18.1042 12.6256 18.2708 12.4584C18.4375 12.2912 18.6319 12.2078 18.8542 12.2084C19.0764 12.2089 19.2708 12.2923 19.4375 12.4584L20.625 13.6459ZM13.5 16C12.5833 16 11.7986 15.6737 11.1458 15.0209C10.4931 14.3681 10.1667 13.5834 10.1667 12.6667C10.1667 11.75 10.4931 10.9653 11.1458 10.3125C11.7986 9.65976 12.5833 9.33337 13.5 9.33337C14.4167 9.33337 15.2014 9.65976 15.8542 10.3125C16.5069 10.9653 16.8333 11.75 16.8333 12.6667C16.8333 13.5834 16.5069 14.3681 15.8542 15.0209C15.2014 15.6737 14.4167 16 13.5 16ZM6.83333 21V20.3334C6.83333 19.8612 6.95499 19.4273 7.19833 19.0317C7.44166 18.6362 7.76444 18.3339 8.16666 18.125C9.02777 17.6945 9.90277 17.3717 10.7917 17.1567C11.6806 16.9417 12.5833 16.8339 13.5 16.8334C14.4167 16.8328 15.3194 16.9406 16.2083 17.1567C17.0972 17.3728 17.9722 17.6956 18.8333 18.125C19.2361 18.3334 19.5592 18.6356 19.8025 19.0317C20.0458 19.4278 20.1672 19.8617 20.1667 20.3334V21C20.1667 21.4584 20.0036 21.8509 19.6775 22.1775C19.3514 22.5042 18.9589 22.6673 18.5 22.6667H8.49999C8.04166 22.6667 7.64944 22.5037 7.32333 22.1775C6.99722 21.8514 6.83388 21.4589 6.83333 21Z" fill="white"/>
</svg>
