<svg width="32" height="32" viewBox="0 0 32 32" fill="none" xmlns="http://www.w3.org/2000/svg">
<rect width="32" height="32" rx="6" fill="#F97A0B"/>
<path d="M10.75 3.5H21.25C25.25 3.5 28.5 6.75 28.5 10.75V21.25C28.5 23.1728 27.7362 25.0169 26.3765 26.3765C25.0169 27.7362 23.1728 28.5 21.25 28.5H10.75C6.75 28.5 3.5 25.25 3.5 21.25V10.75C3.5 8.82718 4.26384 6.98311 5.62348 5.62348C6.98311 4.26384 8.82718 3.5 10.75 3.5ZM10.5 6C9.30653 6 8.16193 6.47411 7.31802 7.31802C6.47411 8.16193 6 9.30653 6 10.5V21.5C6 23.9875 8.0125 26 10.5 26H21.5C22.6935 26 23.8381 25.5259 24.682 24.682C25.5259 23.8381 26 22.6935 26 21.5V10.5C26 8.0125 23.9875 6 21.5 6H10.5ZM22.5625 7.875C22.9769 7.875 23.3743 8.03962 23.6674 8.33265C23.9604 8.62567 24.125 9.0231 24.125 9.4375C24.125 9.8519 23.9604 10.2493 23.6674 10.5424C23.3743 10.8354 22.9769 11 22.5625 11C22.1481 11 21.7507 10.8354 21.4576 10.5424C21.1646 10.2493 21 9.8519 21 9.4375C21 9.0231 21.1646 8.62567 21.4576 8.33265C21.7507 8.03962 22.1481 7.875 22.5625 7.875ZM16 9.75C17.6576 9.75 19.2473 10.4085 20.4194 11.5806C21.5915 12.7527 22.25 14.3424 22.25 16C22.25 17.6576 21.5915 19.2473 20.4194 20.4194C19.2473 21.5915 17.6576 22.25 16 22.25C14.3424 22.25 12.7527 21.5915 11.5806 20.4194C10.4085 19.2473 9.75 17.6576 9.75 16C9.75 14.3424 10.4085 12.7527 11.5806 11.5806C12.7527 10.4085 14.3424 9.75 16 9.75ZM16 12.25C15.0054 12.25 14.0516 12.6451 13.3483 13.3483C12.6451 14.0516 12.25 15.0054 12.25 16C12.25 16.9946 12.6451 17.9484 13.3483 18.6517C14.0516 19.3549 15.0054 19.75 16 19.75C16.9946 19.75 17.9484 19.3549 18.6517 18.6517C19.3549 17.9484 19.75 16.9946 19.75 16C19.75 15.0054 19.3549 14.0516 18.6517 13.3483C17.9484 12.6451 16.9946 12.25 16 12.25Z" fill="white"/>
</svg>
