<svg width="32" height="32" viewBox="0 0 32 32" fill="none" xmlns="http://www.w3.org/2000/svg">
<circle cx="16" cy="16" r="16" fill="#F97A0B"/>
<path d="M23.31 13.4625L22.17 10.0425C22.0046 9.54461 21.6865 9.11146 21.2609 8.80463C20.8353 8.4978 20.3238 8.33291 19.7992 8.33338H12.2008C11.6762 8.33291 11.1647 8.4978 10.7391 8.80463C10.3135 9.11146 9.99538 9.54461 9.83001 10.0425L8.69 13.4625C8.38686 13.5894 8.12797 13.803 7.94589 14.0766C7.76382 14.3501 7.66667 14.6714 7.66667 15V19.1667C7.66667 19.7817 8.00334 20.3134 8.50001 20.6025V22.5C8.50001 22.7211 8.5878 22.933 8.74408 23.0893C8.90036 23.2456 9.11232 23.3334 9.33334 23.3334H10.1667C10.3877 23.3334 10.5996 23.2456 10.7559 23.0893C10.9122 22.933 11 22.7211 11 22.5V20.8334H21V22.5C21 22.7211 21.0878 22.933 21.2441 23.0893C21.4004 23.2456 21.6123 23.3334 21.8333 23.3334H22.6667C22.8877 23.3334 23.0996 23.2456 23.2559 23.0893C23.4122 22.933 23.5 22.7211 23.5 22.5V20.6025C23.7528 20.4575 23.963 20.2485 24.1093 19.9964C24.2556 19.7443 24.3329 19.4582 24.3333 19.1667V15C24.3333 14.6714 24.2362 14.3501 24.0541 14.0766C23.872 13.803 23.6132 13.5894 23.31 13.4625ZM12.2008 10H19.7983C20.1575 10 20.4758 10.2284 20.5892 10.57L21.5108 13.3334H10.4892L11.41 10.57C11.4653 10.404 11.5714 10.2596 11.7134 10.1573C11.8553 10.055 12.0259 10 12.2008 10ZM10.5833 18.3334C10.4191 18.3333 10.2565 18.3009 10.1049 18.238C9.95317 18.1751 9.81536 18.083 9.69928 17.9668C9.58321 17.8507 9.49115 17.7128 9.42836 17.5611C9.36557 17.4094 9.33328 17.2467 9.33334 17.0825C9.33339 16.9183 9.36579 16.7557 9.42868 16.6041C9.49157 16.4524 9.58372 16.3146 9.69987 16.1985C9.81602 16.0824 9.9539 15.9904 10.1056 15.9276C10.2574 15.8648 10.42 15.8325 10.5842 15.8325C10.9158 15.8327 11.2338 15.9645 11.4682 16.1991C11.7026 16.4337 11.8343 16.7517 11.8342 17.0834C11.8341 17.415 11.7022 17.733 11.4676 17.9674C11.2331 18.2019 10.915 18.3335 10.5833 18.3334ZM21.4167 18.3334C21.2525 18.3333 21.0899 18.3009 20.9382 18.238C20.7865 18.1751 20.6487 18.083 20.5326 17.9668C20.4165 17.8507 20.3245 17.7128 20.2617 17.5611C20.1989 17.4094 20.1666 17.2467 20.1667 17.0825C20.1667 16.9183 20.1991 16.7557 20.262 16.6041C20.3249 16.4524 20.4171 16.3146 20.5332 16.1985C20.6494 16.0824 20.7872 15.9904 20.939 15.9276C21.0907 15.8648 21.2533 15.8325 21.4175 15.8325C21.7491 15.8327 22.0671 15.9645 22.3016 16.1991C22.536 16.4337 22.6676 16.7517 22.6675 17.0834C22.6674 17.415 22.5355 17.733 22.301 17.9674C22.0664 18.2019 21.7483 18.3335 21.4167 18.3334Z" fill="white"/>
</svg>
