<svg width="36" height="36" viewBox="0 0 36 36" fill="none" xmlns="http://www.w3.org/2000/svg">
<circle cx="18" cy="18" r="18" fill="#F97A0B"/>
<path d="M26.972 17.291C26.8319 15.519 26.1702 13.8282 25.0704 12.4318C23.9706 11.0355 22.4819 9.99599 20.7921 9.44455C19.1023 8.89311 17.2871 8.85438 15.5753 9.33325C13.8636 9.81212 12.3319 10.7871 11.1736 12.1354C10.0152 13.4836 9.28201 15.1446 9.06644 16.909C8.85087 18.6733 9.16257 20.462 9.96225 22.0495C10.7619 23.6369 12.0137 24.952 13.5599 25.829C15.106 26.7059 16.8771 27.1054 18.65 26.977M9.6 15H26.4M9.6 21H18.5" stroke="white" stroke-width="2" stroke-linecap="round" stroke-linejoin="round"/>
<path d="M17.5 9C15.8153 11.6996 14.9222 14.8179 14.9222 18C14.9222 21.1821 15.8153 24.3004 17.5 27M18.5 9C20.188 11.7048 21.0813 14.8297 21.078 18.018M25 24V24.01M27.121 26.121C27.5407 25.7015 27.8265 25.1669 27.9423 24.585C28.0581 24.003 27.9988 23.3997 27.7717 22.8515C27.5447 22.3033 27.1602 21.8347 26.6668 21.505C26.1734 21.1753 25.5934 20.9994 25 20.9994C24.4066 20.9994 23.8266 21.1753 23.3332 21.505C22.8398 21.8347 22.4553 22.3033 22.2283 22.8515C22.0012 23.3997 21.9419 24.003 22.0577 24.585C22.1735 25.1669 22.4594 25.7015 22.879 26.121C23.297 26.5397 24.004 27.166 25 28C26.0513 27.11 26.7583 26.4837 27.121 26.121Z" stroke="white" stroke-width="2" stroke-linecap="round" stroke-linejoin="round"/>
</svg>
