<svg width="24" height="16" viewBox="0 0 24 16" fill="none" xmlns="http://www.w3.org/2000/svg">
<path d="M1.33333 16C0.955552 16 0.639108 15.872 0.383997 15.616C0.128886 15.36 0.000885857 15.0436 -3.0317e-06 14.6667C-0.000891921 14.2898 0.127108 13.9733 0.383997 13.7173C0.640886 13.4613 0.95733 13.3333 1.33333 13.3333H22.6667C23.0444 13.3333 23.3613 13.4613 23.6173 13.7173C23.8733 13.9733 24.0009 14.2898 24 14.6667C23.9991 15.0436 23.8711 15.3604 23.616 15.6173C23.3609 15.8742 23.0444 16.0018 22.6667 16H1.33333ZM1.33333 9.33333C0.955552 9.33333 0.639108 9.20533 0.383997 8.94933C0.128886 8.69333 0.000885857 8.37689 -3.0317e-06 8C-0.000891921 7.62311 0.127108 7.30667 0.383997 7.05067C0.640886 6.79467 0.95733 6.66667 1.33333 6.66667H22.6667C23.0444 6.66667 23.3613 6.79467 23.6173 7.05067C23.8733 7.30667 24.0009 7.62311 24 8C23.9991 8.37689 23.8711 8.69378 23.616 8.95067C23.3609 9.20756 23.0444 9.33511 22.6667 9.33333H1.33333ZM1.33333 2.66667C0.955552 2.66667 0.639108 2.53867 0.383997 2.28267C0.128886 2.02667 0.000885857 1.71022 -3.0317e-06 1.33333C-0.000891921 0.956444 0.127108 0.64 0.383997 0.384C0.640886 0.128 0.95733 0 1.33333 0H22.6667C23.0444 0 23.3613 0.128 23.6173 0.384C23.8733 0.64 24.0009 0.956444 24 1.33333C23.9991 1.71022 23.8711 2.02711 23.616 2.284C23.3609 2.54089 23.0444 2.66844 22.6667 2.66667H1.33333Z" fill="white"/>
</svg>
