<svg width="32" height="32" viewBox="0 0 32 32" fill="none" xmlns="http://www.w3.org/2000/svg">
<circle cx="16" cy="16" r="16" fill="#F97A0B"/>
<path d="M18 13.9V12.2C18.55 11.9667 19.1127 11.7917 19.688 11.675C20.2633 11.5583 20.8673 11.5 21.5 11.5C21.9333 11.5 22.3583 11.5333 22.775 11.6C23.1917 11.6667 23.6 11.75 24 11.85V13.45C23.6 13.3 23.1957 13.1877 22.787 13.113C22.3783 13.0383 21.9493 13.0007 21.5 13C20.8667 13 20.2583 13.0793 19.675 13.238C19.0917 13.3967 18.5333 13.6173 18 13.9ZM18 19.4V17.7C18.55 17.4667 19.1127 17.2917 19.688 17.175C20.2633 17.0583 20.8673 17 21.5 17C21.9333 17 22.3583 17.0333 22.775 17.1C23.1917 17.1667 23.6 17.25 24 17.35V18.95C23.6 18.8 23.1957 18.6873 22.787 18.612C22.3783 18.5367 21.9493 18.4993 21.5 18.5C20.8667 18.5 20.2583 18.575 19.675 18.725C19.0917 18.875 18.5333 19.1 18 19.4ZM18 16.65V14.95C18.55 14.7167 19.1127 14.5417 19.688 14.425C20.2633 14.3083 20.8673 14.25 21.5 14.25C21.9333 14.25 22.3583 14.2833 22.775 14.35C23.1917 14.4167 23.6 14.5 24 14.6V16.2C23.6 16.05 23.1957 15.9373 22.787 15.862C22.3783 15.7867 21.9493 15.7493 21.5 15.75C20.8667 15.75 20.2583 15.8293 19.675 15.988C19.0917 16.1467 18.5333 16.3673 18 16.65ZM10.5 20C11.2833 20 12.046 20.0877 12.788 20.263C13.53 20.4383 14.2673 20.7007 15 21.05V11.2C14.3167 10.8 13.5917 10.5 12.825 10.3C12.0583 10.1 11.2833 10 10.5 10C9.9 10 9.304 10.0583 8.712 10.175C8.12 10.2917 7.54933 10.4667 7 10.7V20.6C7.58333 20.4 8.16267 20.25 8.738 20.15C9.31333 20.05 9.90067 20 10.5 20ZM17 21.05C17.7333 20.7 18.471 20.4377 19.213 20.263C19.955 20.0883 20.7173 20.0007 21.5 20C22.1 20 22.6877 20.05 23.263 20.15C23.8383 20.25 24.4173 20.4 25 20.6V10.7C24.45 10.4667 23.879 10.2917 23.287 10.175C22.695 10.0583 22.0993 10 21.5 10C20.7167 10 19.9417 10.1 19.175 10.3C18.4083 10.5 17.6833 10.8 17 11.2V21.05ZM16 24C15.2 23.3667 14.3333 22.875 13.4 22.525C12.4667 22.175 11.5 22 10.5 22C9.8 22 9.11267 22.0917 8.438 22.275C7.76333 22.4583 7.11733 22.7167 6.5 23.05C6.15 23.2333 5.81267 23.225 5.488 23.025C5.16333 22.825 5.00067 22.5333 5 22.15V10.1C5 9.91667 5.046 9.74167 5.138 9.575C5.23 9.40833 5.36733 9.28333 5.55 9.2C6.31667 8.8 7.11667 8.5 7.95 8.3C8.78333 8.1 9.63333 8 10.5 8C11.4667 8 12.4127 8.125 13.338 8.375C14.2633 8.625 15.1507 9 16 9.5C16.85 9 17.7377 8.625 18.663 8.375C19.5883 8.125 20.534 8 21.5 8C22.3667 8 23.2167 8.1 24.05 8.3C24.8833 8.5 25.6833 8.8 26.45 9.2C26.6333 9.28333 26.771 9.40833 26.863 9.575C26.955 9.74167 27.0007 9.91667 27 10.1V22.15C27 22.5333 26.8377 22.825 26.513 23.025C26.1883 23.225 25.8507 23.2333 25.5 23.05C24.8833 22.7167 24.2377 22.4583 23.563 22.275C22.8883 22.0917 22.2007 22 21.5 22C20.5 22 19.5333 22.175 18.6 22.525C17.6667 22.875 16.8 23.3667 16 24Z" fill="white"/>
</svg>
