<svg width="22" height="22" viewBox="0 0 22 22" fill="none" xmlns="http://www.w3.org/2000/svg">
<path d="M21.5 0.499955C21.9583 1.04162 22.0208 1.81245 21.6875 2.81245C21.3542 3.81245 20.7917 4.70829 20 5.49996L17.4844 8.01558L19.9844 18.8906C20.0365 19.0885 19.974 19.2604 19.7969 19.4062L17.7969 20.9062C17.724 20.9687 17.625 21 17.5 21C17.4583 21 17.4219 20.9947 17.3906 20.9843C17.2344 20.9531 17.125 20.8697 17.0625 20.7343L12.7031 12.7968L8.65625 16.8437L9.48437 19.875C9.53646 20.052 9.49479 20.2135 9.35937 20.3593L7.85937 21.8593C7.76562 21.9531 7.64583 22 7.5 22H7.46875C7.3125 21.9791 7.1875 21.9114 7.09375 21.7968L4.14062 17.8593L0.203124 14.9062C0.0885411 14.8333 0.0208328 14.7135 -5.20144e-07 14.5468C-0.0104172 14.4114 0.0364578 14.2812 0.140624 14.1562L1.64062 12.6406C1.73437 12.5468 1.85417 12.5 2 12.5C2.0625 12.5 2.10417 12.5052 2.125 12.5156L5.15625 13.3437L9.20312 9.29683L1.26562 4.93746C1.11979 4.85412 1.03125 4.72912 1 4.56246C0.979166 4.39579 1.02604 4.25516 1.14062 4.14058L3.14062 2.14058C3.28646 2.00516 3.44271 1.9635 3.60937 2.01558L14 4.49996L16.5 1.99996C17.2917 1.20829 18.1875 0.645788 19.1875 0.312455C20.1875 -0.0208783 20.9583 0.0416217 21.5 0.499955Z" fill="white"/>
</svg>
