<svg width="14" height="14" viewBox="0 0 14 14" fill="none" xmlns="http://www.w3.org/2000/svg">
<path d="M11.2187 14C10.6087 14 9.75187 13.7793 8.46875 13.0625C6.90844 12.1875 5.70156 11.3796 4.14969 9.83183C2.65344 8.33652 1.92531 7.36839 0.906248 5.51402C-0.245002 3.42027 -0.0487518 2.32277 0.170623 1.8537C0.431873 1.29308 0.817498 0.957767 1.31594 0.624954C1.59905 0.439465 1.89865 0.28046 2.21094 0.149954C2.24219 0.136517 2.27125 0.123704 2.29719 0.112142C2.45187 0.0424542 2.68625 -0.0628583 2.98312 0.0496417C3.18125 0.124017 3.35812 0.276204 3.635 0.549642C4.20281 1.10964 4.97875 2.35683 5.265 2.96933C5.45719 3.38214 5.58437 3.65464 5.58469 3.96027C5.58469 4.31808 5.40469 4.59402 5.18625 4.89183C5.14531 4.94777 5.10469 5.0012 5.06531 5.05308C4.8275 5.36558 4.77531 5.45589 4.80969 5.61714C4.87937 5.9412 5.39906 6.90589 6.25312 7.75808C7.10719 8.61027 8.04406 9.09714 8.36937 9.16652C8.5375 9.20245 8.62969 9.14808 8.95219 8.90183C8.99844 8.86652 9.04594 8.82995 9.09562 8.79339C9.42875 8.54558 9.69187 8.37027 10.0412 8.37027H10.0431C10.3472 8.37027 10.6075 8.50214 11.0387 8.71964C11.6012 9.00339 12.8859 9.76933 13.4494 10.3378C13.7234 10.614 13.8762 10.7903 13.9509 10.9881C14.0634 11.2859 13.9575 11.5193 13.8884 11.6756C13.8769 11.7015 13.8641 11.73 13.8506 11.7615C13.7191 12.0733 13.5591 12.3722 13.3728 12.6546C13.0406 13.1515 12.7041 13.5362 12.1422 13.7978C11.8537 13.9343 11.5379 14.0034 11.2187 14Z" fill="white"/>
</svg>
