<svg width="36" height="36" viewBox="0 0 36 36" fill="none" xmlns="http://www.w3.org/2000/svg">
<circle cx="18" cy="18" r="18" fill="#F97A0B"/>
<path d="M25.417 21.713C29.368 16.703 28.301 11.735 25.463 9.99401C22.781 8.34901 20.44 9.01201 19.034 10.068L18 10.842M25.417 21.713C24.469 22.916 23.232 24.12 21.66 25.283C20.115 26.428 19.342 27 18 27C16.658 27 15.886 26.428 14.34 25.283C6.22201 19.275 7.01801 12.153 10.537 9.99401C13.219 8.34901 15.56 9.01201 16.966 10.068L18 10.842M25.417 21.713L19.892 15.445C19.7823 15.321 19.6322 15.2399 19.4683 15.2161C19.3045 15.1923 19.1375 15.2273 18.997 15.315L16.811 16.681C16.3823 16.9522 15.8654 17.0471 15.3683 16.9459C14.8712 16.8447 14.4326 16.5551 14.1441 16.1378C13.8556 15.7206 13.7397 15.2079 13.8206 14.7071C13.9015 14.2064 14.1729 13.7563 14.578 13.451L18 10.842" stroke="white" stroke-width="1.5" stroke-linecap="round" stroke-linejoin="round"/>
</svg>
