<?xml version="1.0" encoding="iso-8859-1"?>
<!-- Generator: Adobe Illustrator 19.0.0, SVG Export Plug-In . SVG Version: 6.00 Build 0)  -->
<svg version="1.1" id="Layer_1" xmlns="http://www.w3.org/2000/svg" xmlns:xlink="http://www.w3.org/1999/xlink" x="0px" y="0px"
	 viewBox="0 0 512 512" style="enable-background:new 0 0 512 512;" xml:space="preserve">
<path style="fill:#7A5436;" d="M151.222,411.816v76.421C182.937,503.46,218.467,512,255.998,512s73.06-8.541,104.776-23.763v-76.421
	H151.222z"/>
<path style="fill:#D5A150;" d="M108.359,374.906v76.278c0,6.873,3.333,13.337,8.97,17.27c10.7,7.466,22.031,14.09,33.894,19.784
	c8.999-12.06,19.401-23.009,30.956-32.618l21.091-38.531l-21.091-42.183L108.359,374.906L108.359,374.906z"/>
<path style="fill:#C98A2E;" d="M277.09,395.998l-21.091-21.091h-73.82v80.713c21.202-17.631,46.3-30.74,73.82-37.823L277.09,395.998
	z"/>
<path style="fill:#AD712C;" d="M255.999,374.906v42.89c42.519,10.943,79.268,36.253,104.776,70.441
	c11.863-5.694,23.194-12.316,33.894-19.784c5.637-3.934,8.97-10.397,8.97-17.27v-76.278L255.999,374.906L255.999,374.906z"/>
<rect x="108.355" y="374.909" style="opacity:0.4;fill:#7A5436;enable-background:new    ;" width="295.279" height="42.183"/>
<path style="fill:#ECCE93;" d="M171.633,395.997H78.831c-6.989,0-12.655-5.666-12.655-12.655v-16.873
	c0-6.989,5.666-12.655,12.655-12.655h92.802l21.091,21.091L171.633,395.997z"/>
<path style="fill:#D5A150;" d="M251.78,395.997h-90.693c-5.824,0-10.546-4.721-10.546-10.546V364.36
	c0-5.824,4.721-10.546,10.546-10.546h90.693l21.091,21.091L251.78,395.997z"/>
<path style="fill:#C98A2E;" d="M340.364,395.997h-94.911c-5.824,0-10.546-4.721-10.546-10.546V364.36
	c0-5.824,4.721-10.546,10.546-10.546h94.911l21.091,21.091L340.364,395.997z"/>
<path style="fill:#AD712C;" d="M433.166,353.814h-29.528h-73.82c-5.824,0-10.546,4.721-10.546,10.546v21.091
	c0,5.824,4.721,10.546,10.546,10.546h73.82h29.528c6.989,0,12.655-5.666,12.655-12.655v-16.873
	C445.821,359.481,440.155,353.814,433.166,353.814z"/>
<path style="fill:#E1B872;" d="M192.725,142.901l-42.183-31.3c-13.288,8.895-25.386,19.424-36.015,31.3
	c-2.115,2.363-4.171,4.78-6.168,7.248c-8.69,10.741-16.229,22.446-22.436,34.935c-6.589,13.257-11.678,27.39-15.036,42.183
	c-3.078,13.567-4.712,27.683-4.712,42.183c0,14.501,1.646,28.615,4.729,42.183c3.36,14.788,8.43,28.928,15.018,42.183
	l106.801-168.731l42.183-42.183L192.725,142.901L192.725,142.901z"/>
<path style="fill:#D5A150;" d="M277.09,80.8c-6.926-0.766-13.96-1.173-21.091-1.173c-22.188,0-43.482,3.82-63.274,10.817
	c-8.192,2.896-16.128,6.331-23.758,10.275c-4.614,2.385-9.118,4.953-13.501,7.696c-3.072,1.922-4.923,5.307-4.923,8.931v15.01
	c0,5.824,4.721,10.546,10.546,10.546h21.091c5.824,0,10.546,4.721,10.546,10.546v21.091c0,5.824-4.721,10.546-10.546,10.546h-21.091
	c-5.824,0-10.546,4.721-10.546,10.546v21.091c0,5.824-4.721,10.546-10.546,10.546h-21.091c-5.824,0-10.546,4.721-10.546,10.546
	v21.091c0,5.824-4.721,10.546-10.546,10.546H77.033c-6.098,0-10.885,5.155-10.527,11.242c0.623,10.57,2.118,20.905,4.398,30.941
	c3.36,14.788,8.43,28.928,15.018,42.183h22.436l84.365-42.183l126.548-168.731L277.09,80.8z"/>
<path style="fill:#C98A2E;" d="M403.411,184.768l-59.055-82.205c-0.871-1.212-2.015-2.206-3.349-2.876
	C321.4,89.85,299.851,83.317,277.09,80.8v10.651c0,5.118-4.149,9.268-9.268,9.268h-23.648c-5.118,0-9.268,4.149-9.268,9.268v23.648
	c0,5.118,4.149,9.268,9.268,9.268h23.648c5.118,0,9.268,4.149,9.268,9.268v23.648c0,5.118-4.149,9.268-9.268,9.268h-23.648
	c-5.118,0-9.268,4.149-9.268,9.268v23.648c0,5.118-4.149,9.268-9.268,9.268h-23.648c-5.118,0-9.268,4.149-9.268,9.268v23.648
	c0,5.118-4.149,9.268-9.268,9.268H159.81c-5.118,0-9.268,4.149-9.268,9.268v23.648c0,5.118-4.149,9.268-9.268,9.268h-23.648
	c-5.118,0-9.268,4.149-9.268,9.268v32.915h84.365h126.548l83.996-125.994c0.246-0.369,0.518-0.719,0.814-1.049l12.593-14.031
	c3.101-3.456,3.167-8.675,0.151-12.207l-12.936-15.154C403.722,185.182,403.562,184.978,403.411,184.768z"/>
<path style="fill:#AD712C;" d="M441.109,227.266c-3.357-14.792-8.447-28.926-15.036-42.183
	c-7.633-15.358-17.28-29.533-28.603-42.183c-15.361-17.16-33.793-31.512-54.439-42.183h-13.213c-5.824,0-10.546,4.721-10.546,10.546
	v21.091c0,5.824,4.721,10.546,10.546,10.546h21.091c5.824,0,10.546,4.721,10.546,10.546v21.091c0,5.824,4.721,10.546,10.546,10.546
	h21.091c5.824,0,10.546,4.721,10.546,10.546v21.091c0,5.824-4.721,10.546-10.546,10.546h-21.091
	c-5.824,0-10.546,4.721-10.546,10.546v21.091c0,5.824-4.721,10.546-10.546,10.546h-21.091c-5.824,0-10.546,4.721-10.546,10.546
	v21.091c0,5.824-4.721,10.546-10.546,10.546H277.09h-42.183H203.27c-5.824,0-10.546,4.721-10.546,10.546v31.637h84.365h84.365
	h64.619c6.588-13.255,11.658-27.395,15.018-42.183c3.082-13.568,4.729-27.681,4.729-42.183
	C445.821,254.95,444.187,240.833,441.109,227.266z"/>
<path style="opacity:0.4;fill:#7A5436;enable-background:new    ;" d="M441.109,227.266c-3.357-14.792-8.447-28.926-15.036-42.183
	c-7.633-15.358-17.28-29.533-28.603-42.183c-15.361-17.16-33.793-31.512-54.439-42.183c-13.687-7.074-28.349-12.524-43.727-16.111
	c17.021,10.005,32.347,22.578,45.437,37.202c11.323,12.65,20.971,26.826,28.603,42.183c6.589,13.257,11.678,27.39,15.036,42.183
	c3.078,13.567,4.712,27.683,4.712,42.183c0,14.501-1.646,28.615-4.729,42.183c-0.034,0.148-0.067,0.295-0.101,0.444
	c-5.631,24.512-27.678,41.739-52.829,41.739h-26.707h-42.183h-42.183h-84.365H77.008c2.556,7.242,5.532,14.284,8.915,21.091h22.436
	h84.365h84.365h42.183h42.183h64.619c6.588-13.255,11.658-27.395,15.018-42.183c3.082-13.568,4.729-27.681,4.729-42.183
	C445.821,254.95,444.187,240.833,441.109,227.266z"/>
<path d="M438.125,346.535c10.358-24.365,15.605-50.24,15.605-77.086c0-50.119-18.754-95.934-49.601-130.821
	c-0.448-0.696-0.999-1.32-1.637-1.843c-26.037-28.724-60.386-49.773-99.206-59.336c-1.064-7.702-7.656-13.639-15.651-13.639h-23.728
	v-6.893c2.277-0.65,4.492-1.573,6.596-2.788c6.708-3.873,11.507-10.127,13.512-17.609c1.13-4.219-1.374-8.557-5.593-9.687
	c-4.214-1.13-8.555,1.374-9.686,5.593c-0.911,3.401-3.093,6.243-6.142,8.004c-3.049,1.761-6.601,2.228-10.003,1.317
	c-3.401-0.911-6.243-3.092-8.004-6.142c-1.76-3.049-2.228-6.602-1.317-10.003c0.911-3.401,3.093-6.243,6.142-8.004
	c3.05-1.76,6.605-2.227,10.003-1.317c4.221,1.128,8.557-1.374,9.687-5.593S267.73,2.132,263.51,1
	c-7.481-2.005-15.299-0.975-22.007,2.898c-6.709,3.872-11.507,10.127-13.512,17.609s-0.975,15.298,2.898,22.006
	c3.802,6.586,9.9,11.324,17.201,13.392v6.903h-23.728c-7.995,0-14.587,5.937-15.651,13.639
	c-38.821,9.563-73.169,30.612-99.205,59.336c-0.639,0.524-1.19,1.148-1.639,1.845c-30.845,34.887-49.599,80.701-49.599,130.82
	c0,26.845,5.248,52.72,15.604,77.086c-8.947,2.228-15.604,10.307-15.604,19.935v16.873c0,11.339,9.225,20.564,20.564,20.564h21.619
	v57.977c0,4.368,3.541,7.909,7.909,7.909c4.368,0,7.909-3.541,7.909-7.909v-57.977h279.46v57.977c0,4.368,3.54,7.909,7.909,7.909
	s7.909-3.541,7.909-7.909v-57.977h21.619c11.339,0,20.564-9.225,20.564-20.564v-16.873
	C453.73,356.842,447.072,348.763,438.125,346.535z M327.182,388.088v-26.364h68.547v26.364H327.182z M90.902,345.905
	c-3.987-8.582-7.262-17.381-9.837-26.364h27.293c4.368,0,7.909-3.541,7.909-7.909s-3.541-7.909-7.909-7.909H77.304
	c-1.645-8.646-2.659-17.443-3.034-26.364h76.272c4.368,0,7.909-3.541,7.909-7.909s-3.541-7.909-7.909-7.909h-34.273v-13.182
	c0-4.368-3.541-7.909-7.909-7.909s-7.909,3.541-7.909,7.909v13.182H74.267c1.815-42.2,18.067-80.721,43.941-110.73h53.424
	c4.368,0,7.909-3.541,7.909-7.909s-3.541-7.909-7.909-7.909h-38.037c32.339-29.466,75.309-47.456,122.403-47.456
	c14.994,0,29.564,1.836,43.511,5.273h-22.42c-4.369,0-7.909,3.541-7.909,7.909s3.54,7.909,7.909,7.909h34.273v26.364H298.18
	c-4.369,0-7.909,3.541-7.909,7.909s3.54,7.909,7.909,7.909h55.365v26.364h-76.456c-4.369,0-7.909,3.541-7.909,7.909
	c0,4.368,3.54,7.909,7.909,7.909h34.273v26.364H298.18c-4.369,0-7.909,3.541-7.909,7.909c0,4.368,3.54,7.909,7.909,7.909h55.365
	v24.782v1.582h-97.548c-4.368,0-7.909,3.541-7.909,7.909s3.541,7.909,7.909,7.909h55.365v26.364h-68.547V290.54
	c0-4.368-3.541-7.909-7.909-7.909c-4.368,0-7.909,3.541-7.909,7.909v13.182h-76.456c-4.368,0-7.909,3.541-7.909,7.909
	s3.541,7.909,7.909,7.909h34.273v26.364H90.902z M378.401,134.992h-51.219v-26.364h13.182c0.177,0,0.351-0.015,0.526-0.026
	C354.504,115.815,367.104,124.698,378.401,134.992z M284.999,345.905v-26.364h68.547v26.364H284.999z M200.634,345.905v-26.364
	h68.547v26.364H200.634z M327.182,303.723v-26.364h68.547v26.364H327.182z M411.547,277.358h26.18
	c-0.375,8.923-1.389,17.718-3.034,26.364h-23.146V277.358z M369.365,261.54v-1.582v-24.782h34.273c4.369,0,7.909-3.541,7.909-7.909
	c0-4.368-3.54-7.909-7.909-7.909h-76.456v-26.364h93.858c9.766,20.999,15.64,44.157,16.69,68.547H369.365z M369.365,177.174V150.81
	h24.424c7.058,8.186,13.393,17.009,18.922,26.364H369.365z M226.998,361.724v26.364h-68.547v-26.364H226.998z M242.817,361.724
	h68.547v26.364h-68.547V361.724z M369.365,345.905v-26.364h61.567c-2.575,8.983-5.849,17.782-9.837,26.364H369.365z M74.086,383.342
	v-16.873c0-2.572,2.173-4.746,4.746-4.746h63.801v26.364H78.831C76.258,388.088,74.086,385.914,74.086,383.342z M437.912,383.342
	c0,2.572-2.173,4.746-4.746,4.746h-21.619v-26.364h21.619c2.572,0,4.746,2.173,4.746,4.746V383.342z"/>
<path d="M257.97,410.137c-1.294-0.332-2.649-0.332-3.943,0c-43.418,11.175-82.178,37.232-109.144,73.371
	c-2.612,3.501-1.892,8.458,1.609,11.07c1.421,1.059,3.078,1.57,4.723,1.57c2.412,0,4.792-1.099,6.345-3.18
	c24.406-32.708,59.3-56.439,98.437-66.991c39.137,10.552,74.032,34.283,98.438,66.991c2.613,3.501,7.567,4.221,11.069,1.609
	c3.5-2.612,4.221-7.568,1.608-11.07C340.149,447.368,301.388,421.311,257.97,410.137z"/>
<g>
</g>
<g>
</g>
<g>
</g>
<g>
</g>
<g>
</g>
<g>
</g>
<g>
</g>
<g>
</g>
<g>
</g>
<g>
</g>
<g>
</g>
<g>
</g>
<g>
</g>
<g>
</g>
<g>
</g>
</svg>
