<svg xmlns="http://www.w3.org/2000/svg" viewBox="0 0 512 512"><title>Artboard 123</title><g id="Forbidden_City" data-name="Forbidden City"><rect x="85.33333" y="106.66667" width="341.33333" height="64" style="fill:#a84400"/><rect x="320" y="106.66667" width="106.66667" height="64" style="fill:#851f00"/><rect x="64" y="213.33333" width="384" height="106.66667" style="fill:#a84400"/><rect x="277.33333" y="213.33333" width="170.66667" height="106.66667" style="fill:#851f00"/><rect x="42.66667" y="213.33333" width="426.66667" height="42.66667" style="fill:#9d3100"/><path d="M426.66667,170.66667H85.33333c0,21.33333-42.66666,42.66666-64,42.66666v21.33334H490.66667V213.33333C469.33333,213.33333,426.66667,192,426.66667,170.66667Z" style="fill:#b37900"/><path d="M426.66667,170.66667H384V192H341.33333v21.33333H490.66667C469.33333,213.33333,426.66667,192,426.66667,170.66667Z" style="fill:#9e6611"/><path d="M405.33333,42.66667s0-21.33334-21.33333-21.33334c0,0,0,21.33334-21.33333,21.33334H149.33333C128,42.66667,128,21.33333,128,21.33333c-21.33333,0-21.33333,21.33334-21.33333,21.33334q0,64-64,64V128H469.33333V106.66667Q405.33334,106.66667,405.33333,42.66667Z" style="fill:#cb8c01"/><path d="M405.33333,42.66667s0-21.33334-21.33333-21.33334c0,0,0,21.33334-21.33333,21.33334V64H341.33333V85.33333H384v21.33334h85.33333Q405.33334,106.66667,405.33333,42.66667Z" style="fill:#b37900"/><rect x="85.33333" y="256" width="21.33333" height="21.33333" style="fill:#2f2038"/><rect x="106.66667" y="256" width="21.33333" height="42.66667" style="fill:#ba6b33"/><rect x="64" y="256" width="21.33333" height="85.33333" style="fill:#ba6b33"/><rect x="149.33333" y="256" width="21.33333" height="42.66667" style="fill:#ba6b33"/><rect x="341.33333" y="256" width="21.33333" height="42.66667" style="fill:#a84400"/><rect x="384" y="256" width="21.33333" height="42.66667" style="fill:#a84400"/><rect x="426.66667" y="256" width="21.33333" height="85.33333" style="fill:#a84400"/><rect x="128" y="256" width="21.33333" height="21.33333" style="fill:#2f2038"/><rect x="192" y="256" width="21.33333" height="21.33333" style="fill:#2f2038"/><rect x="234.66667" y="256" width="42.66667" height="64" style="fill:#2f2038"/><rect x="298.66667" y="256" width="21.33333" height="21.33333" style="fill:#2f2038"/><rect x="405.33333" y="256" width="21.33333" height="21.33333" style="fill:#25152e"/><rect x="362.66667" y="256" width="21.33333" height="21.33333" style="fill:#25152e"/><rect x="234.66667" y="149.33333" width="42.66667" height="21.33333" style="fill:#701600"/><rect x="341.33333" y="149.33333" width="42.66667" height="21.33333" style="fill:#701600"/><rect x="128" y="149.33333" width="42.66667" height="21.33333" style="fill:#701600"/><rect x="21.33333" y="320" width="469.33333" height="21.33333" style="fill:#93a3af"/><path d="M42.66667,298.66667H64S64,320,85.33333,320s21.33334-21.33333,21.33334-21.33333H128v42.66666H42.66667Z" style="fill:#b8c3cb"/><path d="M149.33333,298.66667h21.33334S170.66667,320,192,320s21.33333-21.33333,21.33333-21.33333h21.33334v42.66666H149.33333Z" style="fill:#b8c3cb"/><path d="M277.33333,298.66667h21.33334S298.66667,320,320,320s21.33333-21.33333,21.33333-21.33333h21.33334v42.66666H277.33333Z" style="fill:#b8c3cb"/><path d="M384,298.66667h21.33333S405.33333,320,426.66667,320,448,298.66667,448,298.66667h21.33333v42.66666H384Z" style="fill:#b8c3cb"/><rect x="21.33333" y="341.33333" width="469.33333" height="149.33333" style="fill:#851f00"/><polygon points="490.667 490.667 405.333 490.667 405.333 426.667 362.667 426.667 362.667 405.333 405.333 405.333 405.333 384 384 384 384 362.667 405.333 362.667 490.667 362.667 490.667 490.667" style="fill:#701600"/><polygon points="320 384 320 405.333 213.333 405.333 213.333 426.667 320 426.667 341.333 426.667 341.333 384 320 384" style="fill:#701600"/><rect x="128" y="405.33333" width="42.66667" height="21.33333" style="fill:#9d3100"/><rect x="170.66667" y="341.33333" width="42.66667" height="21.33333" style="fill:#9d3100"/><rect x="192" y="448" width="42.66667" height="21.33333" style="fill:#9d3100"/><rect x="64" y="405.33333" width="42.66667" height="21.33333" style="fill:#9d3100"/><path d="M320,490.66667H298.66667V469.33333A42.70886,42.70886,0,0,0,256,426.66667V405.33333a64.07,64.07,0,0,1,64,64Z" style="fill:#a84400"/><path d="M256,426.66667H256a42.66662,42.66662,0,0,1,42.66662,42.66662v21.33338a0,0,0,0,1,0,0H213.33333a0,0,0,0,1,0,0V469.33329A42.66662,42.66662,0,0,1,256,426.66667Z" style="fill:#2f2038"/><path d="M170.66667,490.66667H149.33333V469.33333a42.70885,42.70885,0,0,0-42.66666-42.66666V405.33333a64.07,64.07,0,0,1,64,64Z" style="fill:#a84400"/><path d="M106.66662,426.66667h.00009a42.66662,42.66662,0,0,1,42.66662,42.66662v21.33338a0,0,0,0,1,0,0H64a0,0,0,0,1,0,0V469.33329A42.66662,42.66662,0,0,1,106.66662,426.66667Z" style="fill:#2f2038"/><path d="M85.33333,490.66667H64V469.33333a42.70886,42.70886,0,0,1,42.66667-42.66666V448a21.36113,21.36113,0,0,0-21.33334,21.33333Z" style="fill:#25152e"/><path d="M234.66667,490.66667H213.33333V469.33333A42.70886,42.70886,0,0,1,256,426.66667V448a21.36112,21.36112,0,0,0-21.33333,21.33333Z" style="fill:#25152e"/><path d="M469.33333,490.66667H448V469.33333a42.70886,42.70886,0,0,0-42.66667-42.66666V405.33333a64.07,64.07,0,0,1,64,64Z" style="fill:#851f00"/><path d="M405.33329,426.66667h.00009A42.66662,42.66662,0,0,1,448,469.33329v21.33338a0,0,0,0,1,0,0H362.66667a0,0,0,0,1,0,0V469.33329A42.66662,42.66662,0,0,1,405.33329,426.66667Z" style="fill:#2f2038"/><rect x="192" y="362.66667" width="128" height="42.66667" style="fill:#dfe4e7"/><rect x="42.66667" y="106.66667" width="426.66667" height="21.33333" style="fill:#b37900"/><rect x="298.66667" y="106.66667" width="170.66667" height="21.33333" style="fill:#9e6611"/><rect x="21.33333" y="213.33333" width="469.33333" height="21.33333" style="fill:#9e6611"/><rect x="298.66667" y="213.33333" width="192" height="21.33333" style="fill:#885400"/><rect x="128" y="42.66667" width="42.66667" height="21.33333" style="fill:#d6a436"/><rect x="128" y="170.66667" width="42.66667" height="21.33333" style="fill:#cb8c01"/><rect x="192" y="192" width="42.66667" height="21.33333" style="fill:#cb8c01"/><rect x="277.33333" y="192" width="42.66667" height="21.33333" style="fill:#cb8c01"/><rect x="85.33333" y="192" width="21.33333" height="21.33333" style="fill:#cb8c01"/><rect x="234.66667" y="170.66667" width="42.66667" height="21.33333" style="fill:#cb8c01"/><rect x="192" y="42.66667" width="42.66667" height="21.33333" style="fill:#d6a436"/><rect x="256" y="42.66667" width="42.66667" height="21.33333" style="fill:#d6a436"/><rect x="320" y="42.66667" width="42.66667" height="21.33333" style="fill:#d6a436"/><rect x="362.66667" y="85.33333" width="42.66667" height="21.33333" style="fill:#d6a436"/><rect x="298.66667" y="85.33333" width="42.66667" height="21.33333" style="fill:#d6a436"/><rect x="234.66667" y="85.33333" width="42.66667" height="21.33333" style="fill:#d6a436"/><rect x="170.66667" y="85.33333" width="42.66667" height="21.33333" style="fill:#d6a436"/><rect x="149.33333" y="64" width="42.66667" height="21.33333" style="fill:#b37900"/><rect x="106.66667" y="85.33333" width="42.66667" height="21.33333" style="fill:#d6a436"/><rect x="277.33333" y="64" width="42.66667" height="21.33333" style="fill:#b37900"/><rect x="64" y="128" width="384" height="21.33333" style="fill:#9d3100"/><rect x="170.66667" y="149.33333" width="21.33333" height="21.33333" style="fill:#ba6b33"/><rect x="277.33333" y="149.33333" width="21.33333" height="21.33333" style="fill:#ba6b33"/><rect x="384" y="149.33333" width="21.33333" height="21.33333" style="fill:#a84400"/><rect x="277.33333" y="256" width="21.33333" height="42.66667" style="fill:#ba6b33"/><rect x="128" y="320" width="21.33333" height="21.33333" style="fill:#556e81"/><rect x="234.66667" y="320" width="21.33333" height="21.33333" style="fill:#556e81"/><rect x="362.66667" y="320" width="21.33333" height="21.33333" style="fill:#556e81"/><rect x="469.33333" y="320" width="21.33333" height="21.33333" style="fill:#556e81"/><path d="M384,490.66667H362.66667V469.33333a42.70885,42.70885,0,0,1,42.66666-42.66666V448A21.36113,21.36113,0,0,0,384,469.33333Z" style="fill:#25152e"/><polygon points="277.333 256 256 256 234.667 256 234.667 277.333 234.667 320 256 320 256 277.333 277.333 277.333 277.333 256" style="fill:#25152e"/><rect x="21.33333" y="362.66667" width="42.66667" height="21.33333" style="fill:#9d3100"/><rect x="85.33333" y="362.66667" width="42.66667" height="21.33333" style="fill:#9d3100"/><rect x="405.33333" y="362.66667" width="42.66667" height="21.33333" style="fill:#851f00"/><rect x="341.33333" y="362.66667" width="42.66667" height="21.33333" style="fill:#9d3100"/><rect x="320" y="448" width="42.66667" height="21.33333" style="fill:#9d3100"/><rect x="469.33333" y="405.33333" width="21.33333" height="21.33333" style="fill:#851f00"/><rect x="21.33333" y="448" width="42.66667" height="21.33333" style="fill:#9d3100"/></g></svg>