<svg width="28" height="28" viewBox="0 0 28 28" fill="none" xmlns="http://www.w3.org/2000/svg">
<path d="M4 0C1.79375 0 0 1.79375 0 4V24C0 26.2062 1.79375 28 4 28H24C26.2062 28 28 26.2062 28 24V4C28 1.79375 26.2062 0 24 0H4ZM21.9562 10.4562C21.9562 15.875 17.8312 22.1187 10.2937 22.1187C7.96875 22.1187 5.8125 21.4437 4 20.2812C4.33125 20.3187 4.65 20.3312 4.9875 20.3312C6.90625 20.3312 8.66875 19.6812 10.075 18.5812C8.275 18.5437 6.7625 17.3625 6.24375 15.7375C6.875 15.8312 7.44375 15.8312 8.09375 15.6625C6.21875 15.2812 4.8125 13.6312 4.8125 11.6375V11.5875C5.35625 11.8937 5.99375 12.0812 6.6625 12.1062C6.1 11.7312 5.6375 11.225 5.31875 10.6312C5 10.0375 4.83125 9.36875 4.8375 8.69375C4.8375 7.93125 5.0375 7.23125 5.39375 6.625C7.4125 9.1125 10.4437 10.7375 13.8437 10.9125C13.2625 8.13125 15.3437 5.875 17.8437 5.875C19.025 5.875 20.0875 6.36875 20.8375 7.16875C21.7625 6.99375 22.65 6.65 23.4375 6.18125C23.1312 7.13125 22.4875 7.93125 21.6375 8.4375C22.4625 8.35 23.2625 8.11875 24 7.8C23.4437 8.61875 22.7437 9.34375 21.9437 9.925C21.9562 10.1 21.9562 10.2812 21.9562 10.4562Z" fill="white"/>
</svg>
