<svg width="32" height="32" viewBox="0 0 32 32" fill="none" xmlns="http://www.w3.org/2000/svg">
<rect width="32" height="32" rx="6" fill="#F97A0B"/>
<path d="M29.075 8.5C28.1125 8.9375 27.075 9.225 26 9.3625C27.1 8.7 27.95 7.65 28.35 6.3875C27.3125 7.0125 26.1625 7.45 24.95 7.7C23.9625 6.625 22.575 6 21 6C18.0625 6 15.6625 8.4 15.6625 11.3625C15.6625 11.7875 15.7125 12.2 15.8 12.5875C11.35 12.3625 7.38749 10.225 4.74999 6.9875C4.28749 7.775 4.02499 8.7 4.02499 9.675C4.02499 11.5375 4.96249 13.1875 6.41249 14.125C5.52499 14.125 4.69999 13.875 3.97499 13.5V13.5375C3.97499 16.1375 5.82499 18.3125 8.27499 18.8C7.48854 19.0162 6.66253 19.0461 5.86249 18.8875C6.202 19.9531 6.86691 20.8855 7.76376 21.5537C8.66061 22.2218 9.7443 22.5921 10.8625 22.6125C8.96707 24.1131 6.6175 24.9242 4.19999 24.9125C3.77499 24.9125 3.34999 24.8875 2.92499 24.8375C5.29999 26.3625 8.12499 27.25 11.15 27.25C21 27.25 26.4125 19.075 26.4125 11.9875C26.4125 11.75 26.4125 11.525 26.4 11.2875C27.45 10.5375 28.35 9.5875 29.075 8.5Z" fill="white"/>
</svg>
