<svg width="20" height="20" viewBox="0 0 20 20" fill="none" xmlns="http://www.w3.org/2000/svg">
<path fill-rule="evenodd" clip-rule="evenodd" d="M14.137 2.728L15.967 4.558C18.656 7.248 20 8.592 20 10.262C20 11.933 18.656 13.277 15.967 15.966C13.277 18.656 11.933 20 10.262 20C8.592 20 7.247 18.656 4.558 15.967L2.728 14.137C1.183 12.591 0.410004 11.819 0.123004 10.816C-0.164996 9.813 0.0810036 8.748 0.573004 6.619L0.856004 5.391C1.269 3.599 1.476 2.703 2.089 2.089C2.702 1.475 3.599 1.269 5.391 0.856001L6.619 0.572001C8.749 0.0810013 9.813 -0.164999 10.816 0.122001C11.819 0.410001 12.592 1.183 14.137 2.728ZM9.146 12.328C8.473 11.656 8.478 10.69 8.881 9.925C8.78123 9.78089 8.73509 9.6064 8.75058 9.43181C8.76606 9.25722 8.84221 9.09357 8.96579 8.96928C9.08937 8.84499 9.25258 8.7679 9.42707 8.75141C9.60157 8.73492 9.77633 8.78006 9.921 8.879C10.261 8.699 10.634 8.603 11.006 8.607C11.2049 8.60886 11.3949 8.68966 11.5343 8.83162C11.6736 8.97359 11.7509 9.16509 11.749 9.364C11.7471 9.56291 11.6663 9.75294 11.5244 9.89228C11.3824 10.0316 11.1909 10.1089 10.992 10.107C10.7605 10.1156 10.5416 10.2151 10.383 10.384C9.996 10.771 10.097 11.159 10.206 11.268C10.316 11.377 10.703 11.478 11.09 11.091C11.874 10.307 13.228 10.047 14.095 10.914C14.768 11.587 14.763 12.553 14.36 13.318C14.4591 13.4621 14.5048 13.6364 14.489 13.8106C14.4732 13.9849 14.3971 14.1481 14.2737 14.2721C14.1503 14.3961 13.9874 14.473 13.8132 14.4896C13.6391 14.5062 13.4646 14.4614 13.32 14.363C12.8713 14.6092 12.3507 14.6913 11.848 14.595C11.6531 14.555 11.482 14.4391 11.3725 14.273C11.263 14.1068 11.224 13.9039 11.264 13.709C11.3041 13.5141 11.4199 13.343 11.5861 13.2335C11.7522 13.124 11.9551 13.085 12.15 13.125C12.327 13.162 12.613 13.104 12.858 12.859C13.245 12.471 13.144 12.084 13.035 11.975C12.925 11.866 12.538 11.765 12.151 12.152C11.367 12.936 10.013 13.196 9.146 12.328ZM8.02 8.293C8.20569 8.10725 8.35298 7.88674 8.45345 7.64406C8.55391 7.40139 8.6056 7.1413 8.60556 6.87865C8.60551 6.616 8.55373 6.35593 8.45318 6.11329C8.35262 5.87065 8.20526 5.65019 8.0195 5.4645C7.83375 5.27881 7.61324 5.13153 7.37056 5.03106C7.12789 4.93059 6.8678 4.8789 6.60515 4.87895C6.3425 4.879 6.08243 4.93078 5.83979 5.03133C5.59715 5.13188 5.37669 5.27925 5.191 5.465C4.81599 5.84015 4.60536 6.34891 4.60545 6.87935C4.60555 7.4098 4.81636 7.91848 5.1915 8.2935C5.56665 8.66852 6.07541 8.87915 6.60586 8.87905C7.1363 8.87896 7.64499 8.66815 8.02 8.293Z" fill="#F97A0B"/>
</svg>
