<svg width="32" height="32" viewBox="0 0 32 32" fill="none" xmlns="http://www.w3.org/2000/svg">
<rect width="32" height="32" rx="6" fill="#F97A0B"/>
<path d="M24.8125 7.13745C23.6663 5.98008 22.3013 5.0624 20.7969 4.4379C19.2925 3.81339 17.6789 3.49455 16.05 3.49995C9.225 3.49995 3.6625 9.06245 3.6625 15.8874C3.6625 18.0749 4.2375 20.1999 5.3125 22.0749L3.5625 28.4999L10.125 26.7749C11.9375 27.7624 13.975 28.2874 16.05 28.2874C22.875 28.2874 28.4375 22.7249 28.4375 15.8999C28.4375 12.5874 27.15 9.47495 24.8125 7.13745ZM16.05 26.1874C14.2 26.1874 12.3875 25.6874 10.8 24.7499L10.425 24.5249L6.525 25.5499L7.5625 21.7499L7.3125 21.3624C6.28443 19.7213 5.73866 17.824 5.7375 15.8874C5.7375 10.2124 10.3625 5.58745 16.0375 5.58745C18.7875 5.58745 21.375 6.66245 23.3125 8.61245C24.272 9.56727 25.0324 10.7031 25.5495 11.9541C26.0667 13.2051 26.3302 14.5463 26.325 15.8999C26.35 21.5749 21.725 26.1874 16.05 26.1874ZM21.7 18.4874C21.3875 18.3374 19.8625 17.5874 19.5875 17.4749C19.3 17.3749 19.1 17.3249 18.8875 17.6249C18.675 17.9374 18.0875 18.6374 17.9125 18.8374C17.7375 19.0499 17.55 19.0749 17.2375 18.9124C16.925 18.7624 15.925 18.4249 14.75 17.3749C13.825 16.5499 13.2125 15.5374 13.025 15.2249C12.85 14.9124 13 14.7499 13.1625 14.5874C13.3 14.4499 13.475 14.2249 13.625 14.0499C13.775 13.8749 13.8375 13.7374 13.9375 13.5374C14.0375 13.3249 13.9875 13.1499 13.9125 12.9999C13.8375 12.8499 13.2125 11.3249 12.9625 10.6999C12.7125 10.0999 12.45 10.1749 12.2625 10.1624H11.6625C11.45 10.1624 11.125 10.2374 10.8375 10.5499C10.5625 10.8624 9.7625 11.6124 9.7625 13.1374C9.7625 14.6624 10.875 16.1374 11.025 16.3374C11.175 16.5499 13.2125 19.6749 16.3125 21.0124C17.05 21.3374 17.625 21.5249 18.075 21.6624C18.8125 21.8999 19.4875 21.8624 20.025 21.7874C20.625 21.6999 21.8625 21.0374 22.1125 20.3124C22.375 19.5874 22.375 18.9749 22.2875 18.8374C22.2 18.6999 22.0125 18.6374 21.7 18.4874Z" fill="white"/>
</svg>
