<svg width="30" height="30" viewBox="0 0 30 30" fill="none" xmlns="http://www.w3.org/2000/svg">
<path d="M29.1525 7.27496C29.1393 6.66724 29.0906 6.06082 29.0066 5.45879C28.905 4.92338 28.732 4.40403 28.4923 3.91462C27.9682 2.87929 27.1275 2.03811 26.0925 1.51337C25.6061 1.27498 25.0902 1.10252 24.5582 1.00054C23.9516 0.915021 23.3404 0.865351 22.7279 0.851791C22.4686 0.841874 22.1329 0.837624 21.9771 0.837624L8.02573 0.833374C7.8699 0.833374 7.53415 0.837624 7.2749 0.847541C6.66718 0.860716 6.06075 0.909438 5.45873 0.993457C4.92332 1.09503 4.40397 1.26799 3.91456 1.50771C2.87923 2.03184 2.03805 2.87252 1.51331 3.90754C1.27492 4.39388 1.10246 4.90985 1.00048 5.44179C0.914486 6.04842 0.864343 6.65959 0.850313 7.27212C0.841813 7.53137 0.836146 7.86712 0.836146 8.02296L0.833313 21.9743C0.833313 22.1301 0.837563 22.4659 0.84748 22.7251C0.860655 23.3328 0.909377 23.9393 0.993396 24.5413C1.09497 25.0767 1.26793 25.5961 1.50765 26.0855C2.03177 27.1208 2.87246 27.962 3.90748 28.4867C4.39382 28.7251 4.90979 28.8976 5.44173 28.9995C6.04839 29.0851 6.65956 29.1347 7.27206 29.1483C7.53131 29.1582 7.86706 29.1625 8.0229 29.1625L21.9742 29.1653C22.1301 29.1653 22.4658 29.161 22.7251 29.1511C23.3328 29.138 23.9392 29.0892 24.5412 29.0052C25.0766 28.9036 25.596 28.7307 26.0854 28.491C27.1213 27.9671 27.963 27.1264 28.4881 26.0911C28.7265 25.6048 28.8989 25.0888 29.0009 24.5569C29.0869 23.9502 29.137 23.3391 29.1511 22.7265C29.1596 22.4673 29.1652 22.1315 29.1652 21.9757L29.1666 8.02579C29.1666 7.86996 29.1624 7.53421 29.1525 7.27496ZM15.3074 24.8558H15.3031C13.6166 24.857 11.9569 24.4342 10.4766 23.6261L5.12156 25.03L6.55523 19.7983C5.44521 17.8721 5.00167 15.6334 5.2934 13.4295C5.58513 11.2256 6.59582 9.17943 8.16878 7.60834C9.74173 6.03726 11.7891 5.029 13.9934 4.7399C16.1976 4.45079 18.4357 4.89698 20.3606 6.0093C22.2855 7.12161 23.7897 8.83791 24.6399 10.8921C25.4901 12.9462 25.6389 15.2235 25.0631 17.3709C24.4874 19.5182 23.2193 21.4156 21.4554 22.7688C19.6916 24.1221 17.5306 24.8557 15.3074 24.8558Z" fill="white"/>
</svg>
